<svg xmlns="http://www.w3.org/2000/svg" width="300" height="79.082" viewBox="0 0 300 79.082">
  <g id="Vivemas-logo-v2" transform="translate(356 -150)">
    <g id="Text">
      <path id="Trazado_1304" data-name="Trazado 1304" d="M46.657,17.6H47.3v6.454h-.645Z" transform="translate(-242.533 203.285)"/>
      <path id="Trazado_1305" data-name="Trazado 1305" d="M47.083,17.954H47.7v.856a2.562,2.562,0,0,1,.817-.731,1.965,1.965,0,0,1,.975-.244,1.718,1.718,0,0,1,.948.27,1.62,1.62,0,0,1,.612.731,3.878,3.878,0,0,1,.2,1.436v2.456h-.612V20.45a5.47,5.47,0,0,0-.072-1.1,1.194,1.194,0,0,0-.408-.711,1.254,1.254,0,0,0-.79-.237,1.48,1.48,0,0,0-.994.369,1.7,1.7,0,0,0-.586.909,6.341,6.341,0,0,0-.086,1.3v1.752h-.612Z" transform="translate(-240.153 204.609)"/>
      <path id="Trazado_1306" data-name="Trazado 1306" d="M48.033,17.954h.612v.83a2.372,2.372,0,0,1,.659-.672,1.893,1.893,0,0,1,.981-.277,1.612,1.612,0,0,1,.659.132,1.537,1.537,0,0,1,.507.362,2,2,0,0,1,.342.652,2.316,2.316,0,0,1,.764-.856,1.8,1.8,0,0,1,.988-.29,1.518,1.518,0,0,1,.876.25,1.445,1.445,0,0,1,.56.7,3.637,3.637,0,0,1,.184,1.337v2.608H54.54V20.12a3.406,3.406,0,0,0-.112-1.054.972.972,0,0,0-.369-.461,1.113,1.113,0,0,0-.632-.178,1.4,1.4,0,0,0-.817.263,1.478,1.478,0,0,0-.54.7,4.456,4.456,0,0,0-.171,1.462v1.87h-.612V20.285a4.107,4.107,0,0,0-.112-1.172.9.9,0,0,0-.375-.494,1.072,1.072,0,0,0-.632-.191,1.382,1.382,0,0,0-.8.257,1.541,1.541,0,0,0-.547.692,3.719,3.719,0,0,0-.178,1.33v2.022h-.612Z" transform="translate(-234.847 204.609)"/>
      <path id="Trazado_1307" data-name="Trazado 1307" d="M51.885,17.835a2.367,2.367,0,0,1,1.831.8,2.51,2.51,0,0,1,.659,1.725,2.47,2.47,0,0,1-.7,1.745,2.512,2.512,0,0,1-3.583,0,2.551,2.551,0,0,1-.04-3.464A2.341,2.341,0,0,1,51.885,17.835Zm0,.6A1.779,1.779,0,0,0,50.568,19a1.983,1.983,0,0,0-.3,2.331,1.757,1.757,0,0,0,.678.692,1.85,1.85,0,0,0,2.549-.692A1.973,1.973,0,0,0,53.2,19,1.776,1.776,0,0,0,51.885,18.434Z" transform="translate(-227.233 204.609)"/>
      <path id="Trazado_1308" data-name="Trazado 1308" d="M50.449,24.186V17.574h.612v2.661a2.637,2.637,0,0,1,.863-.711,2.436,2.436,0,0,1,1.047-.231,2.339,2.339,0,0,1,1.732.731,2.46,2.46,0,0,1,.718,1.785,2.421,2.421,0,0,1-.724,1.765,2.335,2.335,0,0,1-1.739.738,2.269,2.269,0,0,1-1.06-.25,2.632,2.632,0,0,1-.836-.751v.876Zm2.456-.468a1.824,1.824,0,0,0,1.633-.962,1.937,1.937,0,0,0,.257-.968,1.973,1.973,0,0,0-.257-.968,1.86,1.86,0,0,0-.692-.718,1.818,1.818,0,0,0-.935-.257,1.925,1.925,0,0,0-.955.257,1.746,1.746,0,0,0-.691.692,1.955,1.955,0,0,0-.244.981,1.892,1.892,0,0,0,.54,1.383A1.835,1.835,0,0,0,52.906,23.719Z" transform="translate(-221.352 203.151)"/>
      <path id="Trazado_1309" data-name="Trazado 1309" d="M51.955,17.555a.464.464,0,0,1,.356.151.509.509,0,0,1,0,.711.5.5,0,1,1-.711-.711A.464.464,0,0,1,51.955,17.555Zm-.31,1.963h.612v4.775h-.612Z" transform="translate(-215.771 203.045)"/>
      <path id="Trazado_1310" data-name="Trazado 1310" d="M51.87,17.574h.612v6.612H51.87Z" transform="translate(-213.414 203.151)"/>
      <path id="Trazado_1311" data-name="Trazado 1311" d="M52.733,17.555a.464.464,0,0,1,.356.151.5.5,0,1,1-.711.711.509.509,0,0,1,0-.711A.464.464,0,0,1,52.733,17.555Zm-.3,1.963h.612v4.775H52.43Z" transform="translate(-211.392 203.045)"/>
      <path id="Trazado_1312" data-name="Trazado 1312" d="M57.6,17.954v4.775h-.606v-.823a2.637,2.637,0,0,1-.863.711,2.356,2.356,0,0,1-1.054.237,2.331,2.331,0,0,1-1.725-.738,2.449,2.449,0,0,1-.718-1.785,2.4,2.4,0,0,1,.724-1.765,2.354,2.354,0,0,1,1.739-.731,2.218,2.218,0,0,1,1.067.25,2.35,2.35,0,0,1,.83.751v-.882Zm-2.45.474a1.855,1.855,0,0,0-1.64.955,1.937,1.937,0,0,0-.257.968,1.889,1.889,0,0,0,.263.962,1.86,1.86,0,0,0,.692.718,1.818,1.818,0,0,0,.935.257,1.907,1.907,0,0,0,.955-.257,1.79,1.79,0,0,0,.7-.685,2.021,2.021,0,0,0,.237-.981,1.913,1.913,0,0,0-.54-1.383A1.829,1.829,0,0,0,55.151,18.428Z" transform="translate(-209.141 204.609)"/>
      <path id="Trazado_1313" data-name="Trazado 1313" d="M53.683,17.954h.626v.7a2.114,2.114,0,0,1,.593-.612,1.076,1.076,0,0,1,1.192-.046l-.323.52a.786.786,0,0,0-.323-.086.884.884,0,0,0-.593.257,1.568,1.568,0,0,0-.435.777,7.857,7.857,0,0,0-.112,1.653v1.614h-.626Z" transform="translate(-203.287 204.609)"/>
      <path id="Trazado_1314" data-name="Trazado 1314" d="M54.7,17.555a.508.508,0,0,1,.362.863.5.5,0,0,1-.362.151.488.488,0,0,1-.356-.151.509.509,0,0,1,0-.711A.464.464,0,0,1,54.7,17.555Zm-.3,1.963h.612v4.775H54.4Z" transform="translate(-200.382 203.045)"/>
      <path id="Trazado_1315" data-name="Trazado 1315" d="M59.578,17.954v4.775h-.606v-.823a2.658,2.658,0,0,1-.869.711,2.412,2.412,0,0,1-2.779-.5,2.449,2.449,0,0,1-.718-1.785,2.421,2.421,0,0,1,.724-1.765,2.354,2.354,0,0,1,1.739-.731,2.2,2.2,0,0,1,1.067.25,2.425,2.425,0,0,1,.836.751v-.882Zm-2.456.474a1.855,1.855,0,0,0-1.64.955,2,2,0,0,0-.25.968,1.949,1.949,0,0,0,.257.962,1.86,1.86,0,0,0,.692.718,1.818,1.818,0,0,0,.935.257,1.889,1.889,0,0,0,.955-.257,1.79,1.79,0,0,0,.7-.685,2.025,2.025,0,0,0,.244-.981,1.919,1.919,0,0,0-.547-1.383A1.808,1.808,0,0,0,57.122,18.428Z" transform="translate(-198.131 204.609)"/>
      <path id="Trazado_1316" data-name="Trazado 1316" d="M56.107,17.853h.652l1.64,3.675,1.594-3.675h.652L57.8,24.373h-.652l.922-2.107Z" transform="translate(-189.747 204.709)"/>
      <path id="Trazado_1317" data-name="Trazado 1317" d="M63.81,18.931l-.507.389a2.888,2.888,0,0,0-1.008-.83,3.041,3.041,0,0,0-1.3-.283,2.869,2.869,0,0,0-1.429.369,2.619,2.619,0,0,0-1.021,1,2.716,2.716,0,0,0-.362,1.4A2.632,2.632,0,0,0,59,22.948a2.8,2.8,0,0,0,2.042.79,2.873,2.873,0,0,0,2.266-1.06l.507.382a3.226,3.226,0,0,1-1.205.955A3.753,3.753,0,0,1,61,24.351a3.338,3.338,0,0,1-2.674-1.133,3.393,3.393,0,0,1-.823-2.3,3.216,3.216,0,0,1,.994-2.384,3.455,3.455,0,0,1,2.489-.962,3.671,3.671,0,0,1,1.633.356A3.148,3.148,0,0,1,63.81,18.931Z" transform="translate(-181.96 203.151)"/>
      <path id="Trazado_1318" data-name="Trazado 1318" d="M61.213,17.835a2.367,2.367,0,0,1,1.831.8A2.559,2.559,0,0,1,63,22.1a2.52,2.52,0,0,1-3.589,0,2.493,2.493,0,0,1-.691-1.745,2.452,2.452,0,0,1,.659-1.719A2.341,2.341,0,0,1,61.213,17.835Zm0,.6A1.769,1.769,0,0,0,59.9,19a1.878,1.878,0,0,0-.553,1.37,1.957,1.957,0,0,0,.25.962,1.885,1.885,0,0,0,2.555.692,1.8,1.8,0,0,0,.678-.692,1.957,1.957,0,0,0,.25-.962A1.878,1.878,0,0,0,62.524,19,1.776,1.776,0,0,0,61.213,18.434Z" transform="translate(-175.129 204.609)"/>
      <path id="Trazado_1319" data-name="Trazado 1319" d="M59.771,17.954h.612v.856a2.562,2.562,0,0,1,.817-.731,1.983,1.983,0,0,1,.975-.244,1.718,1.718,0,0,1,.948.27,1.62,1.62,0,0,1,.613.731,3.878,3.878,0,0,1,.2,1.436v2.456h-.613V20.45a5.475,5.475,0,0,0-.072-1.1,1.162,1.162,0,0,0-.408-.711,1.254,1.254,0,0,0-.79-.237,1.48,1.48,0,0,0-.994.369,1.736,1.736,0,0,0-.586.909,6.872,6.872,0,0,0-.086,1.3v1.752h-.612Z" transform="translate(-169.281 204.609)"/>
      <path id="Trazado_1320" data-name="Trazado 1320" d="M63.5,18.48l-.4.408a1.414,1.414,0,0,0-.968-.481.711.711,0,0,0-.507.2.6.6,0,0,0-.217.461.677.677,0,0,0,.178.441,2.53,2.53,0,0,0,.738.507,2.685,2.685,0,0,1,.935.685,1.238,1.238,0,0,1,.237.744,1.377,1.377,0,0,1-.408,1,1.431,1.431,0,0,1-1.034.408,1.83,1.83,0,0,1-.79-.184,1.69,1.69,0,0,1-.619-.494l.382-.441a1.343,1.343,0,0,0,1,.533.893.893,0,0,0,.626-.237.717.717,0,0,0,.263-.553A.736.736,0,0,0,62.754,21a2.918,2.918,0,0,0-.777-.507,2.46,2.46,0,0,1-.876-.659,1.278,1.278,0,0,1,.138-1.646,1.292,1.292,0,0,1,.935-.356A1.933,1.933,0,0,1,63.5,18.48Z" transform="translate(-164.354 204.609)"/>
      <path id="Trazado_1321" data-name="Trazado 1321" d="M62.16,17.584h.612v1.772h.975v.533h-.975V24.13H62.16V19.889h-.836v-.533h.836Z" transform="translate(-160.606 203.207)"/>
      <path id="Trazado_1322" data-name="Trazado 1322" d="M61.915,17.954h.626v.7a2.3,2.3,0,0,1,.593-.612,1.086,1.086,0,0,1,1.2-.046l-.323.52a.811.811,0,0,0-.323-.086.871.871,0,0,0-.593.257,1.568,1.568,0,0,0-.435.777,7.285,7.285,0,0,0-.119,1.653v1.614h-.626Z" transform="translate(-157.305 204.609)"/>
      <path id="Trazado_1323" data-name="Trazado 1323" d="M62.467,17.853h.619v2.233a4.737,4.737,0,0,0,.086,1.12,1.259,1.259,0,0,0,.5.7,1.582,1.582,0,0,0,.889.25,1.534,1.534,0,0,0,.869-.244,1.322,1.322,0,0,0,.494-.659,4.337,4.337,0,0,0,.092-1.166V17.853h.626V20.2a3.639,3.639,0,0,1-.23,1.488,1.773,1.773,0,0,1-.692.784,2.221,2.221,0,0,1-1.159.283A2.28,2.28,0,0,1,63.4,22.47a1.809,1.809,0,0,1-.7-.79,3.909,3.909,0,0,1-.23-1.528Z" transform="translate(-154.221 204.709)"/>
      <path id="Trazado_1324" data-name="Trazado 1324" d="M68.247,18.948l-.481.3a2.047,2.047,0,0,0-1.726-.836,2,2,0,0,0-1.449.56,1.841,1.841,0,0,0-.573,1.363,1.931,1.931,0,0,0,.988,1.693,2.195,2.195,0,0,0,2.759-.586l.481.323a2.307,2.307,0,0,1-.915.8,3,3,0,0,1-1.317.283,2.6,2.6,0,0,1-1.877-.724,2.345,2.345,0,0,1-.744-1.745,2.514,2.514,0,0,1,.349-1.291,2.46,2.46,0,0,1,.962-.929,2.82,2.82,0,0,1,1.363-.329,2.863,2.863,0,0,1,.915.145,2.393,2.393,0,0,1,.744.375A1.9,1.9,0,0,1,68.247,18.948Z" transform="translate(-149.049 204.609)"/>
      <path id="Trazado_1325" data-name="Trazado 1325" d="M69.254,18.948l-.487.3a2.038,2.038,0,0,0-1.725-.836,2,2,0,0,0-1.449.56,1.841,1.841,0,0,0-.573,1.363,1.942,1.942,0,0,0,.263.981,1.9,1.9,0,0,0,.731.711,2.076,2.076,0,0,0,1.034.257,2.108,2.108,0,0,0,1.719-.843l.487.323a2.327,2.327,0,0,1-.922.8,2.994,2.994,0,0,1-1.311.283,2.583,2.583,0,0,1-1.877-.724,2.327,2.327,0,0,1-.751-1.745A2.512,2.512,0,0,1,65.7,18.164a2.978,2.978,0,0,1,2.279-.184,2.392,2.392,0,0,1,.744.375A2,2,0,0,1,69.254,18.948Z" transform="translate(-143.458 204.609)"/>
      <path id="Trazado_1326" data-name="Trazado 1326" d="M65.887,17.555a.464.464,0,0,1,.356.151.5.5,0,1,1-.711.711.509.509,0,0,1,0-.711A.464.464,0,0,1,65.887,17.555Zm-.31,1.963H66.2v4.775h-.619Z" transform="translate(-137.916 203.045)"/>
      <path id="Trazado_1327" data-name="Trazado 1327" d="M68.275,19.628a2.367,2.367,0,0,1,1.831.8,2.51,2.51,0,0,1,.659,1.725,2.47,2.47,0,0,1-.7,1.745,2.512,2.512,0,0,1-3.583,0,2.551,2.551,0,0,1-.04-3.464A2.341,2.341,0,0,1,68.275,19.628Zm0,.6a1.779,1.779,0,0,0-1.317.566,1.983,1.983,0,0,0-.3,2.331,1.785,1.785,0,0,0,.672.692,1.86,1.86,0,0,0,.942.244,1.813,1.813,0,0,0,1.613-.935,1.973,1.973,0,0,0-.3-2.331A1.776,1.776,0,0,0,68.275,20.227Zm.3-2.713h.942l-1.291,1.35h-.606Z" transform="translate(-135.682 202.816)"/>
      <path id="Trazado_1328" data-name="Trazado 1328" d="M66.833,17.954h.613v.856a2.631,2.631,0,0,1,.817-.731,1.982,1.982,0,0,1,.975-.244,1.718,1.718,0,0,1,.948.27,1.62,1.62,0,0,1,.612.731,3.877,3.877,0,0,1,.2,1.436v2.456h-.612V20.45a6.239,6.239,0,0,0-.066-1.1,1.2,1.2,0,0,0-.415-.711,1.229,1.229,0,0,0-.79-.237,1.48,1.48,0,0,0-.994.369,1.686,1.686,0,0,0-.579.909,6.2,6.2,0,0,0-.092,1.3v1.752h-.613Z" transform="translate(-129.834 204.609)"/>
    </g>
    <path id="Letter_1" data-name="Letter 1" d="M22.343,8.826H32.667L45.939,46.3,59.4,8.826h10.31L50.708,61.574H41.027Z" transform="translate(-378.343 154.284)" fill="#38a935"/>
    <g id="Letter_2" data-name="Letter 2">
      <rect id="Rectángulo_240" data-name="Rectángulo 240" width="9.789" height="39.015" transform="translate(-303.099 176.842)" fill="#38a935"/>
      <path id="Trazado_1330" data-name="Trazado 1330" d="M36.392,8.471a6,6,0,0,1,4.419,1.87,6.2,6.2,0,0,1,1.837,4.518,6.134,6.134,0,0,1-1.818,4.465,5.925,5.925,0,0,1-4.366,1.844,6,6,0,0,1-4.452-1.884,6.3,6.3,0,0,1-1.837-4.571A6.016,6.016,0,0,1,32,10.3,5.979,5.979,0,0,1,36.392,8.471Z" transform="translate(-334.598 152.303)" fill="#38a935"/>
    </g>
    <path id="Letter_3" data-name="Letter 3" d="M32.523,10.911H42.5l9.856,23.022,9.835-23.022h9.923l-16.6,39.015H49.161Z" transform="translate(-321.483 165.932)" fill="#38a935"/>
    <path id="Letter_4" data-name="Letter 4" d="M80.014,32.236q0-9.7-5.782-15.582-5.749-5.907-14.976-5.894a19.3,19.3,0,0,0-14.436,5.894A20.342,20.342,0,0,0,39.07,31.486a19.718,19.718,0,0,0,5.763,14.5Q50.621,51.767,59.8,51.77A23.159,23.159,0,0,0,70,49.676a19.457,19.457,0,0,0,7.4-6.48l-8.245-3.872a13.054,13.054,0,0,1-9.437,3.84,11.451,11.451,0,0,1-7.547-2.45,10.437,10.437,0,0,1-3.642-6.619H79.981ZM48.968,26.388a12.659,12.659,0,0,1,3.589-5.064,11.743,11.743,0,0,1,7.172-2.285,11.038,11.038,0,0,1,6.632,2.042,9.7,9.7,0,0,1,3.82,5.308Z" transform="translate(-284.912 165.089)" fill="#38a935"/>
    <path id="Letter_5" data-name="Letter 5" d="M46.418,11.766h9.793v4.485a16.638,16.638,0,0,1,5.578-4.129,16.3,16.3,0,0,1,6.691-1.363,12.415,12.415,0,0,1,6.606,1.8,12.925,12.925,0,0,1,4.735,5.236,15.758,15.758,0,0,1,5.723-5.236,15.6,15.6,0,0,1,7.409-1.8,13.786,13.786,0,0,1,7.323,1.936,11.173,11.173,0,0,1,4.538,5.058Q106.2,20.874,106.2,27.9V50.78H96.338v-19.8q0-6.629-1.653-8.983a5.651,5.651,0,0,0-4.946-2.345,7.539,7.539,0,0,0-4.5,1.436,8.473,8.473,0,0,0-2.957,3.958,24.626,24.626,0,0,0-.968,8.12V50.78H71.451V31.885A26.7,26.7,0,0,0,70.68,24.3a6.9,6.9,0,0,0-2.318-3.5,6.115,6.115,0,0,0-3.741-1.146A7.369,7.369,0,0,0,60.182,21.1a8.656,8.656,0,0,0-2.983,4.07,25.2,25.2,0,0,0-.988,8.252V50.78H46.418Z" transform="translate(-243.868 165.078)"/>
    <path id="Letter_6" data-name="Letter 6" d="M87.155,11.754v4.294a17.947,17.947,0,0,0-5.684-3.971,16.561,16.561,0,0,0-6.6-1.317,17,17,0,0,0-12.967,5.763Q56.591,22.3,56.584,31.334a20.424,20.424,0,0,0,5.5,14.568A17.323,17.323,0,0,0,75.169,51.77a16.065,16.065,0,0,0,6.237-1.192,18.944,18.944,0,0,0,5.749-3.938v4.136h9.8V11.754ZM84.561,39.6A10.091,10.091,0,0,1,76.9,42.8a9.884,9.884,0,0,1-7.514-3.247,11.713,11.713,0,0,1-3.056-8.331,11.521,11.521,0,0,1,3.01-8.232,9.838,9.838,0,0,1,7.528-3.2,10.214,10.214,0,0,1,7.692,3.155A11.4,11.4,0,0,1,87.6,31.189,11.752,11.752,0,0,1,84.561,39.6Z" transform="translate(-187.083 165.089)"/>
    <path id="Letter_7" data-name="Letter 7" d="M90.661,17.219,84.6,23.278q-3.695-3.665-6.711-3.662a4.263,4.263,0,0,0-2.582.7,2.088,2.088,0,0,0-.336,3.194,10.988,10.988,0,0,0,2.918,1.811l3.589,1.791q5.661,2.8,7.784,5.7a11.271,11.271,0,0,1,2.114,6.816,11.26,11.26,0,0,1-3.82,8.673q-3.823,3.477-10.241,3.477a16.275,16.275,0,0,1-13.626-6.665l6.026-6.566A13.737,13.737,0,0,0,73.755,41.8a8.928,8.928,0,0,0,4.1,1.238A4.882,4.882,0,0,0,80.98,42.1a2.7,2.7,0,0,0,1.179-2.147q0-2.262-4.268-4.412l-3.3-1.653q-9.464-4.762-9.464-11.94a10.36,10.36,0,0,1,3.57-7.9,12.962,12.962,0,0,1,9.128-3.286,15.855,15.855,0,0,1,12.836,6.461Z" transform="translate(-147.379 165.078)"/>
    <path id="Trace_1" data-name="Trace 1" d="M79.777,6.835a23.7,23.7,0,0,0-23.7,23.7,22.074,22.074,0,0,0,.211,3.108,23.689,23.689,0,0,1,46.977,0,22.067,22.067,0,0,0,.211-3.108A23.705,23.705,0,0,0,79.777,6.835Z" transform="translate(-189.926 143.165)"/>
  </g>
</svg>
